<svg width="96" height="84" viewBox="0 0 96 84" fill="none" xmlns="http://www.w3.org/2000/svg">
<path d="M96 21V75C96 79.9688 91.9688 84 87 84H9C4.03125 84 0 79.9688 0 75V21C0 16.0312 4.03125 12 9 12H25.5L27.8063 5.83125C29.1188 2.325 32.475 0 36.225 0H59.7563C63.5063 0 66.8625 2.325 68.175 5.83125L70.5 12H87C91.9688 12 96 16.0312 96 21ZM70.5 48C70.5 35.5875 60.4125 25.5 48 25.5C35.5875 25.5 25.5 35.5875 25.5 48C25.5 60.4125 35.5875 70.5 48 70.5C60.4125 70.5 70.5 60.4125 70.5 48ZM64.5 48C64.5 57.0938 57.0938 64.5 48 64.5C38.9062 64.5 31.5 57.0938 31.5 48C31.5 38.9062 38.9062 31.5 48 31.5C57.0938 31.5 64.5 38.9062 64.5 48Z" fill="#ABA4A4"/>
</svg>
