<svg width="47" height="47" viewBox="0 0 47 47" fill="none" xmlns="http://www.w3.org/2000/svg">
<path d="M34.1798 25.85C35.9417 25.85 37.4921 24.8865 38.2908 23.4295L46.7007 8.178C47.5698 6.627 46.4423 4.7 44.6569 4.7H9.88983L7.68165 0H0V4.7H4.69826L13.1551 22.5365L9.98379 28.2705C8.26893 31.4195 10.5241 35.25 14.0948 35.25H42.2843V30.55H14.0948L16.6788 25.85H34.1798ZM12.1215 9.4H40.6634L34.1798 21.15H17.6889L12.1215 9.4ZM14.0948 37.6C11.5107 37.6 9.42 39.715 9.42 42.3C9.42 44.885 11.5107 47 14.0948 47C16.6788 47 18.793 44.885 18.793 42.3C18.793 39.715 16.6788 37.6 14.0948 37.6ZM37.586 37.6C35.002 37.6 32.9113 39.715 32.9113 42.3C32.9113 44.885 35.002 47 37.586 47C40.1701 47 42.2843 44.885 42.2843 42.3C42.2843 39.715 40.1701 37.6 37.586 37.6Z" fill="#D0021B"/>
</svg>
