<svg width="75" height="45" viewBox="0 0 75 45" fill="none" xmlns="http://www.w3.org/2000/svg">
<path d="M44.6435 6.70923C57.6626 6.70923 68.2255 14.9201 68.2255 25.0479C68.2255 27.8434 67.4228 30.4952 65.9781 32.8594L71.8856 42.8594L57.3254 40.5111C53.6653 42.3322 49.3149 43.3865 44.6435 43.3865C31.6245 43.3865 21.0615 35.1757 21.0615 25.0479C21.0615 14.9201 31.6084 6.70923 44.6435 6.70923Z" fill="white" stroke="#231F20" stroke-width="2" stroke-miterlimit="10"/>
<path d="M30.3564 1.59741C17.3373 1.59741 6.79047 9.80827 6.79047 19.9361C6.79047 22.7316 7.59313 25.3834 9.03791 27.7476L3.13037 37.7476L17.6905 35.3993C21.3506 37.2204 25.701 38.2747 30.3725 38.2747C43.3915 38.2747 53.9544 30.0639 53.9544 19.9361C53.9544 9.80827 43.3754 1.59741 30.3564 1.59741Z" fill="white" stroke="#231F20" stroke-width="2" stroke-miterlimit="10"/>
</svg>
