<svg width="41" height="41" viewBox="0 0 41 41" fill="none" xmlns="http://www.w3.org/2000/svg">
<path d="M29.3025 25.7862H27.4505L26.7942 25.1532C29.0915 22.4808 30.4746 19.0114 30.4746 15.2373C30.4746 6.82161 23.6529 0 15.2373 0C6.82161 0 0 6.82161 0 15.2373C0 23.6529 6.82161 30.4746 15.2373 30.4746C19.0114 30.4746 22.4808 29.0915 25.1532 26.7942L25.7862 27.4505V29.3025L37.5071 41L41 37.5071L29.3025 25.7862ZM15.2373 25.7862C9.40023 25.7862 4.68839 21.0743 4.68839 15.2373C4.68839 9.40023 9.40023 4.68839 15.2373 4.68839C21.0743 4.68839 25.7862 9.40023 25.7862 15.2373C25.7862 21.0743 21.0743 25.7862 15.2373 25.7862Z" fill="#D0021B"/>
</svg>
