<svg width="47" height="57" viewBox="0 0 47 57" fill="none" xmlns="http://www.w3.org/2000/svg">
<path d="M33.3333 35.5098H31.2267L30.48 34.6382C33.0933 30.9581 34.6667 26.1804 34.6667 20.9831C34.6667 9.39397 26.9067 0 17.3333 0C7.76 0 0 9.39397 0 20.9831C0 32.5722 7.76 41.9662 17.3333 41.9662C21.6267 41.9662 25.5733 40.0616 28.6133 36.898L29.3333 37.8018V40.3521L42.6667 56.4607L46.64 51.6507L33.3333 35.5098ZM17.3333 35.5098C10.6933 35.5098 5.33333 29.0212 5.33333 20.9831C5.33333 12.945 10.6933 6.45634 17.3333 6.45634C23.9733 6.45634 29.3333 12.945 29.3333 20.9831C29.3333 29.0212 23.9733 35.5098 17.3333 35.5098Z" fill="#D9D9D9"/>
</svg>
