<svg width="45" height="42" viewBox="0 0 45 42" fill="none" xmlns="http://www.w3.org/2000/svg">
<path d="M21.1607 36.0327C22.0919 35.4922 23.2414 35.4922 24.1726 36.0327L33.0684 41.196C35.3532 42.5221 38.1126 40.4614 37.4898 37.8941L35.2139 28.5121C34.9442 27.4004 35.3302 26.2321 36.2091 25.4999L43.6939 19.2645C45.7578 17.5451 44.695 14.1879 42.0176 13.9695L31.9407 13.1474C30.8435 13.0578 29.8834 12.3746 29.4395 11.3672L25.4119 2.22876C24.3599 -0.158046 20.9734 -0.158044 19.9215 2.22876L15.8939 11.3672C15.4499 12.3746 14.4898 13.0578 13.3926 13.1474L3.31573 13.9695C0.638291 14.1879 -0.424486 17.5451 1.63947 19.2645L9.12422 25.4999C10.0031 26.2321 10.3891 27.4004 10.1194 28.5121L7.84349 37.8941C7.22071 40.4614 9.98015 42.5221 12.2649 41.196L21.1607 36.0327Z" fill="black"/>
</svg>
